<svg width="393" height="67" viewBox="0 0 393 67" fill="none" xmlns="http://www.w3.org/2000/svg">
<g filter="url(#filter0_i_80_17)">
<path d="M32.8992 66.592C24.2592 66.592 17.6352 65.368 13.0272 62.92C8.41919 60.472 6.11519 56.944 6.11519 52.336C6.11519 47.728 8.41919 44.2 13.0272 41.752C17.6352 39.304 24.2592 38.08 32.8992 38.08C41.5392 38.08 48.1632 39.304 52.7712 41.752C57.3792 44.2 59.6832 47.728 59.6832 52.336C59.6832 56.944 57.3792 60.472 52.7712 62.92C48.1632 65.368 41.5392 66.592 32.8992 66.592ZM32.8992 55.792C37.0752 55.792 40.1952 55.48 42.2592 54.856C44.4672 54.28 45.5712 53.44 45.5712 52.336C45.5712 51.232 44.4672 50.368 42.2592 49.744C40.0512 49.168 36.9312 48.88 32.8992 48.88C28.9632 48.88 25.8672 49.168 23.6112 49.744C21.3552 50.416 20.2272 51.28 20.2272 52.336C20.2272 53.44 21.3552 54.28 23.6112 54.856C25.6752 55.48 28.7712 55.792 32.8992 55.792ZM0.643194 2.656H30.1632V34.48H15.9072L13.3872 26.848H12.6672V34.48H0.643194V2.656ZM18.1392 23.32V13.816H12.6672V23.32H18.1392ZM47.9472 24.04H45.2112V35.128H33.1872V1.432H45.2112V12.448H47.9472V1.432H59.9712V36.568H47.9472V24.04ZM99.1701 66.592C90.5301 66.592 83.9061 65.368 79.2981 62.92C74.6901 60.472 72.3861 56.944 72.3861 52.336C72.3861 47.728 74.6901 44.2 79.2981 41.752C83.9061 39.304 90.5301 38.08 99.1701 38.08C107.81 38.08 114.434 39.304 119.042 41.752C123.65 44.2 125.954 47.728 125.954 52.336C125.954 56.944 123.65 60.472 119.042 62.92C114.434 65.368 107.81 66.592 99.1701 66.592ZM99.1701 55.792C103.346 55.792 106.466 55.48 108.53 54.856C110.738 54.28 111.842 53.44 111.842 52.336C111.842 51.232 110.738 50.368 108.53 49.744C106.322 49.168 103.202 48.88 99.1701 48.88C95.2341 48.88 92.1381 49.168 89.8821 49.744C87.6261 50.416 86.4981 51.28 86.4981 52.336C86.4981 53.44 87.6261 54.28 89.8821 54.856C91.9461 55.48 95.0421 55.792 99.1701 55.792ZM66.9141 2.656H96.4341V34.48H82.1781L79.6581 26.848H78.9381V34.48H66.9141V2.656ZM84.4101 23.32V13.816H78.9381V23.32H84.4101ZM114.218 24.04H111.482V35.128H99.4581V1.432H111.482V12.448H114.218V1.432H126.242V36.568H114.218V24.04ZM165.225 33.4H160.689V55.576H148.737V14.968H132.753V3.376H160.689V21.736H165.225V1.432H177.249V65.8H165.225V33.4ZM180.489 1.432H192.513V65.8H180.489V1.432ZM206.728 38.728H258.784V65.8H206.728V38.728ZM244.672 54.424V50.104L220.84 50.176V54.424H244.672ZM218.608 34.336C214.576 34.336 211 33.64 207.88 32.248C204.808 30.856 202.408 28.912 200.68 26.416C199 23.872 198.16 20.944 198.16 17.632C198.16 14.32 199 11.416 200.68 8.92C202.408 6.376 204.808 4.408 207.88 3.016C211 1.624 214.576 0.927997 218.608 0.927997C222.64 0.927997 226.192 1.624 229.264 3.016C232.384 4.408 234.784 6.376 236.464 8.92C238.192 11.416 239.056 14.32 239.056 17.632C239.056 20.944 238.192 23.872 236.464 26.416C234.784 28.912 232.384 30.856 229.264 32.248C226.192 33.64 222.64 34.336 218.608 34.336ZM218.608 23.536C220.576 23.536 222.16 23.008 223.36 21.952C224.56 20.848 225.16 19.408 225.16 17.632C225.16 15.856 224.56 14.44 223.36 13.384C222.16 12.28 220.576 11.728 218.608 11.728C216.64 11.728 215.056 12.28 213.856 13.384C212.656 14.44 212.056 15.856 212.056 17.632C212.056 19.408 212.656 20.848 213.856 21.952C215.056 23.008 216.64 23.536 218.608 23.536ZM244.672 1.432H258.784V35.848H244.672V1.432ZM313.031 24.04H310.295V45.64H298.271V1.432H310.295V12.448H313.031V1.432H325.055V46.36H313.031V24.04ZM265.007 2.728H294.527V26.056H279.551L277.967 19.864H277.391V29.08H295.895V39.664H265.367V16.408H282.503V13.312H265.007V2.728ZM273.071 43.048H287.111V53.992H325.847V65.08H273.071V43.048ZM334.014 2.656H388.158V14.248H348.126V28.648H388.95V40.24H334.014V2.656ZM330.846 50.032H392.478V61.624H330.846V50.032Z" fill="url(#paint0_linear_80_17)"/>
</g>
<path d="M13.0272 62.92L13.4963 62.0369L13.0272 62.92ZM13.0272 41.752L12.558 40.8689L13.0272 41.752ZM52.7712 41.752L53.2404 40.8689L52.7712 41.752ZM52.7712 62.92L53.2404 63.8031L52.7712 62.92ZM42.2592 54.856L42.0068 53.8884L41.9882 53.8932L41.9698 53.8988L42.2592 54.856ZM42.2592 49.744L42.5312 48.7817L42.5214 48.7789L42.5116 48.7764L42.2592 49.744ZM23.6112 49.744L23.3638 48.7751L23.3447 48.78L23.3257 48.7856L23.6112 49.744ZM23.6112 54.856L23.9006 53.8988L23.8797 53.8925L23.8586 53.8871L23.6112 54.856ZM0.643194 2.656V1.656H-0.356806V2.656H0.643194ZM30.1632 2.656H31.1632V1.656H30.1632V2.656ZM30.1632 34.48V35.48H31.1632V34.48H30.1632ZM15.9072 34.48L14.9576 34.7935L15.1843 35.48H15.9072V34.48ZM13.3872 26.848L14.3368 26.5345L14.1101 25.848H13.3872V26.848ZM12.6672 26.848V25.848H11.6672V26.848H12.6672ZM12.6672 34.48V35.48H13.6672V34.48H12.6672ZM0.643194 34.48H-0.356806V35.48H0.643194V34.48ZM18.1392 23.32V24.32H19.1392V23.32H18.1392ZM18.1392 13.816H19.1392V12.816H18.1392V13.816ZM12.6672 13.816V12.816H11.6672V13.816H12.6672ZM12.6672 23.32H11.6672V24.32H12.6672V23.32ZM47.9472 24.04H48.9472V23.04H47.9472V24.04ZM45.2112 24.04V23.04H44.2112V24.04H45.2112ZM45.2112 35.128V36.128H46.2112V35.128H45.2112ZM33.1872 35.128H32.1872V36.128H33.1872V35.128ZM33.1872 1.432V0.431999H32.1872V1.432H33.1872ZM45.2112 1.432H46.2112V0.431999H45.2112V1.432ZM45.2112 12.448H44.2112V13.448H45.2112V12.448ZM47.9472 12.448V13.448H48.9472V12.448H47.9472ZM47.9472 1.432V0.431999H46.9472V1.432H47.9472ZM59.9712 1.432H60.9712V0.431999H59.9712V1.432ZM59.9712 36.568V37.568H60.9712V36.568H59.9712ZM47.9472 36.568H46.9472V37.568H47.9472V36.568ZM32.8992 65.592C24.328 65.592 17.8946 64.3734 13.4963 62.0369L12.558 63.8031C17.3758 66.3626 24.1904 67.592 32.8992 67.592V65.592ZM13.4963 62.0369C11.3064 60.8735 9.7206 59.4839 8.68046 57.8912C7.64454 56.305 7.11519 54.4647 7.11519 52.336H5.11519C5.11519 54.8153 5.73785 57.043 7.00592 58.9848C8.26979 60.9201 10.14 62.5185 12.558 63.8031L13.4963 62.0369ZM7.11519 52.336C7.11519 50.2073 7.64454 48.367 8.68046 46.7808C9.7206 45.1881 11.3064 43.7985 13.4963 42.6351L12.558 40.8689C10.14 42.1535 8.26979 43.7519 7.00592 45.6872C5.73785 47.629 5.11519 49.8567 5.11519 52.336H7.11519ZM13.4963 42.6351C17.8946 40.2986 24.328 39.08 32.8992 39.08V37.08C24.1904 37.08 17.3758 38.3094 12.558 40.8689L13.4963 42.6351ZM32.8992 39.08C41.4704 39.08 47.9038 40.2986 52.302 42.6351L53.2404 40.8689C48.4226 38.3094 41.608 37.08 32.8992 37.08V39.08ZM52.302 42.6351C54.492 43.7985 56.0778 45.1881 57.1179 46.7808C58.1538 48.367 58.6832 50.2073 58.6832 52.336H60.6832C60.6832 49.8567 60.0605 47.629 58.7925 45.6872C57.5286 43.7519 55.6584 42.1535 53.2404 40.8689L52.302 42.6351ZM58.6832 52.336C58.6832 54.4647 58.1538 56.305 57.1179 57.8912C56.0778 59.4839 54.492 60.8735 52.302 62.0369L53.2404 63.8031C55.6584 62.5185 57.5286 60.9201 58.7925 58.9848C60.0605 57.043 60.6832 54.8153 60.6832 52.336H58.6832ZM52.302 62.0369C47.9038 64.3734 41.4704 65.592 32.8992 65.592V67.592C41.608 67.592 48.4226 66.3626 53.2404 63.8031L52.302 62.0369ZM32.8992 56.792C37.0996 56.792 40.3397 56.481 42.5486 55.8132L41.9698 53.8988C40.0507 54.479 37.0508 54.792 32.8992 54.792V56.792ZM42.5116 55.8236C43.6715 55.521 44.6452 55.1251 45.3487 54.5898C46.0789 54.0343 46.5712 53.2793 46.5712 52.336H44.5712C44.5712 52.4967 44.5115 52.7137 44.1377 52.9982C43.7372 53.3029 43.0549 53.615 42.0068 53.8884L42.5116 55.8236ZM46.5712 52.336C46.5712 51.3958 46.0821 50.638 45.3595 50.0725C44.6605 49.5254 43.6906 49.1094 42.5312 48.7817L41.9872 50.7063C43.0358 51.0026 43.7219 51.3306 44.1269 51.6475C44.5083 51.946 44.5712 52.1722 44.5712 52.336H46.5712ZM42.5116 48.7764C40.1814 48.1685 36.962 47.88 32.8992 47.88V49.88C36.9004 49.88 39.921 50.1675 42.0068 50.7116L42.5116 48.7764ZM32.8992 47.88C28.9286 47.88 25.7372 48.1691 23.3638 48.7751L23.8586 50.7129C25.9972 50.1669 28.9978 49.88 32.8992 49.88V47.88ZM23.3257 48.7856C22.1474 49.1366 21.1686 49.5633 20.4651 50.1021C19.746 50.6529 19.2272 51.3969 19.2272 52.336H21.2272C21.2272 52.2191 21.2724 52.0031 21.6813 51.6899C22.1058 51.3647 22.819 51.0234 23.8967 50.7024L23.3257 48.7856ZM19.2272 52.336C19.2272 53.2886 19.7351 54.0444 20.4759 54.596C21.1911 55.1286 22.1815 55.523 23.3638 55.8249L23.8586 53.8871C22.7849 53.613 22.0833 53.2994 21.6705 52.992C21.2833 52.7036 21.2272 52.4874 21.2272 52.336H19.2272ZM23.3218 55.8132C25.5301 56.4808 28.7454 56.792 32.8992 56.792V54.792C28.797 54.792 25.8203 54.4792 23.9006 53.8988L23.3218 55.8132ZM0.643194 3.656H30.1632V1.656H0.643194V3.656ZM29.1632 2.656V34.48H31.1632V2.656H29.1632ZM30.1632 33.48H15.9072V35.48H30.1632V33.48ZM16.8568 34.1665L14.3368 26.5345L12.4376 27.1615L14.9576 34.7935L16.8568 34.1665ZM13.3872 25.848H12.6672V27.848H13.3872V25.848ZM11.6672 26.848V34.48H13.6672V26.848H11.6672ZM12.6672 33.48H0.643194V35.48H12.6672V33.48ZM1.64319 34.48V2.656H-0.356806V34.48H1.64319ZM19.1392 23.32V13.816H17.1392V23.32H19.1392ZM18.1392 12.816H12.6672V14.816H18.1392V12.816ZM11.6672 13.816V23.32H13.6672V13.816H11.6672ZM12.6672 24.32H18.1392V22.32H12.6672V24.32ZM47.9472 23.04H45.2112V25.04H47.9472V23.04ZM44.2112 24.04V35.128H46.2112V24.04H44.2112ZM45.2112 34.128H33.1872V36.128H45.2112V34.128ZM34.1872 35.128V1.432H32.1872V35.128H34.1872ZM33.1872 2.432H45.2112V0.431999H33.1872V2.432ZM44.2112 1.432V12.448H46.2112V1.432H44.2112ZM45.2112 13.448H47.9472V11.448H45.2112V13.448ZM48.9472 12.448V1.432H46.9472V12.448H48.9472ZM47.9472 2.432H59.9712V0.431999H47.9472V2.432ZM58.9712 1.432V36.568H60.9712V1.432H58.9712ZM59.9712 35.568H47.9472V37.568H59.9712V35.568ZM48.9472 36.568V24.04H46.9472V36.568H48.9472ZM79.2981 62.92L79.7673 62.0369L79.2981 62.92ZM79.2981 41.752L78.829 40.8689L79.2981 41.752ZM119.042 41.752L119.511 40.8689L119.042 41.752ZM119.042 62.92L119.511 63.8031L119.042 62.92ZM108.53 54.856L108.278 53.8884L108.259 53.8932L108.241 53.8988L108.53 54.856ZM108.53 49.744L108.802 48.7817L108.792 48.7789L108.783 48.7764L108.53 49.744ZM89.8821 49.744L89.6347 48.7751L89.6156 48.78L89.5966 48.7856L89.8821 49.744ZM89.8821 54.856L90.1715 53.8988L90.1506 53.8925L90.1295 53.8871L89.8821 54.856ZM66.9141 2.656V1.656H65.9141V2.656H66.9141ZM96.4341 2.656H97.4341V1.656H96.4341V2.656ZM96.4341 34.48V35.48H97.4341V34.48H96.4341ZM82.1781 34.48L81.2286 34.7935L81.4552 35.48H82.1781V34.48ZM79.6581 26.848L80.6077 26.5345L80.381 25.848H79.6581V26.848ZM78.9381 26.848V25.848H77.9381V26.848H78.9381ZM78.9381 34.48V35.48H79.9381V34.48H78.9381ZM66.9141 34.48H65.9141V35.48H66.9141V34.48ZM84.4101 23.32V24.32H85.4101V23.32H84.4101ZM84.4101 13.816H85.4101V12.816H84.4101V13.816ZM78.9381 13.816V12.816H77.9381V13.816H78.9381ZM78.9381 23.32H77.9381V24.32H78.9381V23.32ZM114.218 24.04H115.218V23.04H114.218V24.04ZM111.482 24.04V23.04H110.482V24.04H111.482ZM111.482 35.128V36.128H112.482V35.128H111.482ZM99.4581 35.128H98.4581V36.128H99.4581V35.128ZM99.4581 1.432V0.431999H98.4581V1.432H99.4581ZM111.482 1.432H112.482V0.431999H111.482V1.432ZM111.482 12.448H110.482V13.448H111.482V12.448ZM114.218 12.448V13.448H115.218V12.448H114.218ZM114.218 1.432V0.431999H113.218V1.432H114.218ZM126.242 1.432H127.242V0.431999H126.242V1.432ZM126.242 36.568V37.568H127.242V36.568H126.242ZM114.218 36.568H113.218V37.568H114.218V36.568ZM99.1701 65.592C90.5989 65.592 84.1655 64.3734 79.7673 62.0369L78.829 63.8031C83.6468 66.3626 90.4613 67.592 99.1701 67.592V65.592ZM79.7673 62.0369C77.5773 60.8735 75.9915 59.4839 74.9514 57.8912C73.9155 56.305 73.3861 54.4647 73.3861 52.336H71.3861C71.3861 54.8153 72.0088 57.043 73.2769 58.9848C74.5407 60.9201 76.4109 62.5185 78.829 63.8031L79.7673 62.0369ZM73.3861 52.336C73.3861 50.2073 73.9155 48.367 74.9514 46.7808C75.9915 45.1881 77.5773 43.7985 79.7673 42.6351L78.829 40.8689C76.4109 42.1535 74.5407 43.7519 73.2769 45.6872C72.0088 47.629 71.3861 49.8567 71.3861 52.336H73.3861ZM79.7673 42.6351C84.1655 40.2986 90.5989 39.08 99.1701 39.08V37.08C90.4613 37.08 83.6468 38.3094 78.829 40.8689L79.7673 42.6351ZM99.1701 39.08C107.741 39.08 114.175 40.2986 118.573 42.6351L119.511 40.8689C114.693 38.3094 107.879 37.08 99.1701 37.08V39.08ZM118.573 42.6351C120.763 43.7985 122.349 45.1881 123.389 46.7808C124.425 48.367 124.954 50.2073 124.954 52.336H126.954C126.954 49.8567 126.331 47.629 125.063 45.6872C123.8 43.7519 121.929 42.1535 119.511 40.8689L118.573 42.6351ZM124.954 52.336C124.954 54.4647 124.425 56.305 123.389 57.8912C122.349 59.4839 120.763 60.8735 118.573 62.0369L119.511 63.8031C121.929 62.5185 123.8 60.9201 125.063 58.9848C126.331 57.043 126.954 54.8153 126.954 52.336H124.954ZM118.573 62.0369C114.175 64.3734 107.741 65.592 99.1701 65.592V67.592C107.879 67.592 114.693 66.3626 119.511 63.8031L118.573 62.0369ZM99.1701 56.792C103.371 56.792 106.611 56.481 108.82 55.8132L108.241 53.8988C106.322 54.479 103.322 54.792 99.1701 54.792V56.792ZM108.783 55.8236C109.942 55.521 110.916 55.1251 111.62 54.5898C112.35 54.0343 112.842 53.2793 112.842 52.336H110.842C110.842 52.4967 110.782 52.7137 110.409 52.9982C110.008 53.3029 109.326 53.615 108.278 53.8884L108.783 55.8236ZM112.842 52.336C112.842 51.3958 112.353 50.638 111.63 50.0725C110.931 49.5254 109.962 49.1094 108.802 48.7817L108.258 50.7063C109.307 51.0026 109.993 51.3306 110.398 51.6475C110.779 51.946 110.842 52.1722 110.842 52.336H112.842ZM108.783 48.7764C106.452 48.1685 103.233 47.88 99.1701 47.88V49.88C103.171 49.88 106.192 50.1675 108.278 50.7116L108.783 48.7764ZM99.1701 47.88C95.1996 47.88 92.0082 48.1691 89.6347 48.7751L90.1295 50.7129C92.2681 50.1669 95.2687 49.88 99.1701 49.88V47.88ZM89.5966 48.7856C88.4184 49.1366 87.4396 49.5633 86.7361 50.1021C86.0169 50.6529 85.4981 51.3969 85.4981 52.336H87.4981C87.4981 52.2191 87.5433 52.0031 87.9522 51.6899C88.3767 51.3647 89.0899 51.0234 90.1676 50.7024L89.5966 48.7856ZM85.4981 52.336C85.4981 53.2886 86.0061 54.0444 86.7469 54.596C87.462 55.1286 88.4524 55.523 89.6347 55.8249L90.1295 53.8871C89.0558 53.613 88.3542 53.2994 87.9414 52.992C87.5542 52.7036 87.4981 52.4874 87.4981 52.336H85.4981ZM89.5927 55.8132C91.801 56.4808 95.0163 56.792 99.1701 56.792V54.792C95.0679 54.792 92.0913 54.4792 90.1715 53.8988L89.5927 55.8132ZM66.9141 3.656H96.4341V1.656H66.9141V3.656ZM95.4341 2.656V34.48H97.4341V2.656H95.4341ZM96.4341 33.48H82.1781V35.48H96.4341V33.48ZM83.1277 34.1665L80.6077 26.5345L78.7086 27.1615L81.2286 34.7935L83.1277 34.1665ZM79.6581 25.848H78.9381V27.848H79.6581V25.848ZM77.9381 26.848V34.48H79.9381V26.848H77.9381ZM78.9381 33.48H66.9141V35.48H78.9381V33.48ZM67.9141 34.48V2.656H65.9141V34.48H67.9141ZM85.4101 23.32V13.816H83.4101V23.32H85.4101ZM84.4101 12.816H78.9381V14.816H84.4101V12.816ZM77.9381 13.816V23.32H79.9381V13.816H77.9381ZM78.9381 24.32H84.4101V22.32H78.9381V24.32ZM114.218 23.04H111.482V25.04H114.218V23.04ZM110.482 24.04V35.128H112.482V24.04H110.482ZM111.482 34.128H99.4581V36.128H111.482V34.128ZM100.458 35.128V1.432H98.4581V35.128H100.458ZM99.4581 2.432H111.482V0.431999H99.4581V2.432ZM110.482 1.432V12.448H112.482V1.432H110.482ZM111.482 13.448H114.218V11.448H111.482V13.448ZM115.218 12.448V1.432H113.218V12.448H115.218ZM114.218 2.432H126.242V0.431999H114.218V2.432ZM125.242 1.432V36.568H127.242V1.432H125.242ZM126.242 35.568H114.218V37.568H126.242V35.568ZM115.218 36.568V24.04H113.218V36.568H115.218ZM165.225 33.4H166.225V32.4H165.225V33.4ZM160.689 33.4V32.4H159.689V33.4H160.689ZM160.689 55.576V56.576H161.689V55.576H160.689ZM148.737 55.576H147.737V56.576H148.737V55.576ZM148.737 14.968H149.737V13.968H148.737V14.968ZM132.753 14.968H131.753V15.968H132.753V14.968ZM132.753 3.376V2.376H131.753V3.376H132.753ZM160.689 3.376H161.689V2.376H160.689V3.376ZM160.689 21.736H159.689V22.736H160.689V21.736ZM165.225 21.736V22.736H166.225V21.736H165.225ZM165.225 1.432V0.431999H164.225V1.432H165.225ZM177.249 1.432H178.249V0.431999H177.249V1.432ZM177.249 65.8V66.8H178.249V65.8H177.249ZM165.225 65.8H164.225V66.8H165.225V65.8ZM180.489 1.432V0.431999H179.489V1.432H180.489ZM192.513 1.432H193.513V0.431999H192.513V1.432ZM192.513 65.8V66.8H193.513V65.8H192.513ZM180.489 65.8H179.489V66.8H180.489V65.8ZM165.225 32.4H160.689V34.4H165.225V32.4ZM159.689 33.4V55.576H161.689V33.4H159.689ZM160.689 54.576H148.737V56.576H160.689V54.576ZM149.737 55.576V14.968H147.737V55.576H149.737ZM148.737 13.968H132.753V15.968H148.737V13.968ZM133.753 14.968V3.376H131.753V14.968H133.753ZM132.753 4.376H160.689V2.376H132.753V4.376ZM159.689 3.376V21.736H161.689V3.376H159.689ZM160.689 22.736H165.225V20.736H160.689V22.736ZM166.225 21.736V1.432H164.225V21.736H166.225ZM165.225 2.432H177.249V0.431999H165.225V2.432ZM176.249 1.432V65.8H178.249V1.432H176.249ZM177.249 64.8H165.225V66.8H177.249V64.8ZM166.225 65.8V33.4H164.225V65.8H166.225ZM180.489 2.432H192.513V0.431999H180.489V2.432ZM191.513 1.432V65.8H193.513V1.432H191.513ZM192.513 64.8H180.489V66.8H192.513V64.8ZM181.489 65.8V1.432H179.489V65.8H181.489ZM206.728 38.728V37.728H205.728V38.728H206.728ZM258.784 38.728H259.784V37.728H258.784V38.728ZM258.784 65.8V66.8H259.784V65.8H258.784ZM206.728 65.8H205.728V66.8H206.728V65.8ZM244.672 54.424V55.424H245.672V54.424H244.672ZM244.672 50.104H245.672V49.101L244.669 49.104L244.672 50.104ZM220.84 50.176L220.837 49.176L219.84 49.179V50.176H220.84ZM220.84 54.424H219.84V55.424H220.84V54.424ZM207.88 32.248L207.467 33.1589L207.473 33.1612L207.88 32.248ZM200.68 26.416L199.846 26.9671L199.852 26.9762L199.858 26.9852L200.68 26.416ZM200.68 8.92L199.853 8.35811L199.85 8.36162L200.68 8.92ZM207.88 3.016L207.473 2.10275L207.467 2.10514L207.88 3.016ZM229.264 3.016L228.851 3.92686L228.857 3.92923L229.264 3.016ZM236.464 8.92L235.63 9.47106L235.636 9.4802L235.642 9.48921L236.464 8.92ZM236.464 26.416L235.637 25.8541L235.634 25.8576L236.464 26.416ZM229.264 32.248L228.857 31.3348L228.851 31.3371L229.264 32.248ZM223.36 21.952L224.021 22.7027L224.029 22.6954L224.037 22.6879L223.36 21.952ZM223.36 13.384L222.683 14.1199L222.691 14.1274L222.699 14.1347L223.36 13.384ZM213.856 13.384L214.517 14.1347L214.525 14.1274L214.533 14.1199L213.856 13.384ZM213.856 21.952L213.179 22.6879L213.187 22.6954L213.195 22.7027L213.856 21.952ZM244.672 1.432V0.431999H243.672V1.432H244.672ZM258.784 1.432H259.784V0.431999H258.784V1.432ZM258.784 35.848V36.848H259.784V35.848H258.784ZM244.672 35.848H243.672V36.848H244.672V35.848ZM206.728 39.728H258.784V37.728H206.728V39.728ZM257.784 38.728V65.8H259.784V38.728H257.784ZM258.784 64.8H206.728V66.8H258.784V64.8ZM207.728 65.8V38.728H205.728V65.8H207.728ZM245.672 54.424V50.104H243.672V54.424H245.672ZM244.669 49.104L220.837 49.176L220.843 51.176L244.675 51.104L244.669 49.104ZM219.84 50.176V54.424H221.84V50.176H219.84ZM220.84 55.424H244.672V53.424H220.84V55.424ZM218.608 33.336C214.691 33.336 211.258 32.6602 208.287 31.3348L207.473 33.1612C210.742 34.6198 214.461 35.336 218.608 35.336V33.336ZM208.293 31.3371C205.367 30.0113 203.116 28.1778 201.502 25.8468L199.858 26.9852C201.7 29.6462 204.249 31.7007 207.467 33.1589L208.293 31.3371ZM201.514 25.8649C199.952 23.4986 199.16 20.7657 199.16 17.632H197.16C197.16 21.1223 198.048 24.2454 199.846 26.9671L201.514 25.8649ZM199.16 17.632C199.16 14.498 199.952 11.7928 201.51 9.47837L199.85 8.36162C198.048 11.0392 197.16 14.142 197.16 17.632H199.16ZM201.507 9.48188C203.122 7.10466 205.372 5.25048 208.293 3.92685L207.467 2.10514C204.244 3.56552 201.694 5.64734 199.853 8.35811L201.507 9.48188ZM208.287 3.92923C211.258 2.6038 214.691 1.928 218.608 1.928V-0.0720034C214.461 -0.0720034 210.742 0.64419 207.473 2.10276L208.287 3.92923ZM218.608 1.928C222.525 1.928 225.932 2.60395 228.851 3.92685L229.677 2.10514C226.452 0.644045 222.755 -0.0720034 218.608 -0.0720034V1.928ZM228.857 3.92923C231.824 5.25329 234.067 7.10466 235.63 9.47106L237.298 8.36893C235.501 5.64734 232.944 3.56271 229.671 2.10276L228.857 3.92923ZM235.642 9.48921C237.243 11.8027 238.056 14.504 238.056 17.632H240.056C240.056 14.136 239.141 11.0293 237.286 8.35079L235.642 9.48921ZM238.056 17.632C238.056 20.7598 237.243 23.4888 235.637 25.8541L237.291 26.9779C239.141 24.2552 240.056 21.1282 240.056 17.632H238.056ZM235.634 25.8576C234.073 28.1778 231.829 30.0085 228.857 31.3348L229.671 33.1612C232.939 31.7035 235.495 29.6462 237.294 26.9744L235.634 25.8576ZM228.851 31.3371C225.932 32.66 222.525 33.336 218.608 33.336V35.336C222.755 35.336 226.452 34.6199 229.677 33.1589L228.851 31.3371ZM218.608 24.536C220.761 24.536 222.598 23.9543 224.021 22.7027L222.699 21.2013C221.722 22.0617 220.391 22.536 218.608 22.536V24.536ZM224.037 22.6879C225.463 21.3765 226.16 19.6598 226.16 17.632H224.16C224.16 19.1562 223.657 20.3195 222.683 21.2161L224.037 22.6879ZM226.16 17.632C226.16 15.6043 225.462 13.9015 224.021 12.6333L222.699 14.1347C223.658 14.9785 224.16 16.1077 224.16 17.632H226.16ZM224.037 12.6481C222.616 11.3405 220.772 10.728 218.608 10.728V12.728C220.38 12.728 221.704 13.2195 222.683 14.1199L224.037 12.6481ZM218.608 10.728C216.444 10.728 214.6 11.3405 213.179 12.6481L214.533 14.1199C215.512 13.2195 216.836 12.728 218.608 12.728V10.728ZM213.195 12.6333C211.754 13.9015 211.056 15.6043 211.056 17.632H213.056C213.056 16.1077 213.558 14.9785 214.517 14.1347L213.195 12.6333ZM211.056 17.632C211.056 19.6598 211.753 21.3765 213.179 22.6879L214.533 21.2161C213.559 20.3195 213.056 19.1562 213.056 17.632H211.056ZM213.195 22.7027C214.618 23.9543 216.455 24.536 218.608 24.536V22.536C216.825 22.536 215.494 22.0617 214.517 21.2013L213.195 22.7027ZM244.672 2.432H258.784V0.431999H244.672V2.432ZM257.784 1.432V35.848H259.784V1.432H257.784ZM258.784 34.848H244.672V36.848H258.784V34.848ZM245.672 35.848V1.432H243.672V35.848H245.672ZM313.031 24.04H314.031V23.04H313.031V24.04ZM310.295 24.04V23.04H309.295V24.04H310.295ZM310.295 45.64V46.64H311.295V45.64H310.295ZM298.271 45.64H297.271V46.64H298.271V45.64ZM298.271 1.432V0.431999H297.271V1.432H298.271ZM310.295 1.432H311.295V0.431999H310.295V1.432ZM310.295 12.448H309.295V13.448H310.295V12.448ZM313.031 12.448V13.448H314.031V12.448H313.031ZM313.031 1.432V0.431999H312.031V1.432H313.031ZM325.055 1.432H326.055V0.431999H325.055V1.432ZM325.055 46.36V47.36H326.055V46.36H325.055ZM313.031 46.36H312.031V47.36H313.031V46.36ZM265.007 2.728V1.728H264.007V2.728H265.007ZM294.527 2.728H295.527V1.728H294.527V2.728ZM294.527 26.056V27.056H295.527V26.056H294.527ZM279.551 26.056L278.582 26.3038L278.775 27.056H279.551V26.056ZM277.967 19.864L278.936 19.6162L278.743 18.864H277.967V19.864ZM277.391 19.864V18.864H276.391V19.864H277.391ZM277.391 29.08H276.391V30.08H277.391V29.08ZM295.895 29.08H296.895V28.08H295.895V29.08ZM295.895 39.664V40.664H296.895V39.664H295.895ZM265.367 39.664H264.367V40.664H265.367V39.664ZM265.367 16.408V15.408H264.367V16.408H265.367ZM282.503 16.408V17.408H283.503V16.408H282.503ZM282.503 13.312H283.503V12.312H282.503V13.312ZM265.007 13.312H264.007V14.312H265.007V13.312ZM273.071 43.048V42.048H272.071V43.048H273.071ZM287.111 43.048H288.111V42.048H287.111V43.048ZM287.111 53.992H286.111V54.992H287.111V53.992ZM325.847 53.992H326.847V52.992H325.847V53.992ZM325.847 65.08V66.08H326.847V65.08H325.847ZM273.071 65.08H272.071V66.08H273.071V65.08ZM313.031 23.04H310.295V25.04H313.031V23.04ZM309.295 24.04V45.64H311.295V24.04H309.295ZM310.295 44.64H298.271V46.64H310.295V44.64ZM299.271 45.64V1.432H297.271V45.64H299.271ZM298.271 2.432H310.295V0.431999H298.271V2.432ZM309.295 1.432V12.448H311.295V1.432H309.295ZM310.295 13.448H313.031V11.448H310.295V13.448ZM314.031 12.448V1.432H312.031V12.448H314.031ZM313.031 2.432H325.055V0.431999H313.031V2.432ZM324.055 1.432V46.36H326.055V1.432H324.055ZM325.055 45.36H313.031V47.36H325.055V45.36ZM314.031 46.36V24.04H312.031V46.36H314.031ZM265.007 3.728H294.527V1.728H265.007V3.728ZM293.527 2.728V26.056H295.527V2.728H293.527ZM294.527 25.056H279.551V27.056H294.527V25.056ZM280.52 25.8082L278.936 19.6162L276.998 20.1118L278.582 26.3038L280.52 25.8082ZM277.967 18.864H277.391V20.864H277.967V18.864ZM276.391 19.864V29.08H278.391V19.864H276.391ZM277.391 30.08H295.895V28.08H277.391V30.08ZM294.895 29.08V39.664H296.895V29.08H294.895ZM295.895 38.664H265.367V40.664H295.895V38.664ZM266.367 39.664V16.408H264.367V39.664H266.367ZM265.367 17.408H282.503V15.408H265.367V17.408ZM283.503 16.408V13.312H281.503V16.408H283.503ZM282.503 12.312H265.007V14.312H282.503V12.312ZM266.007 13.312V2.728H264.007V13.312H266.007ZM273.071 44.048H287.111V42.048H273.071V44.048ZM286.111 43.048V53.992H288.111V43.048H286.111ZM287.111 54.992H325.847V52.992H287.111V54.992ZM324.847 53.992V65.08H326.847V53.992H324.847ZM325.847 64.08H273.071V66.08H325.847V64.08ZM274.071 65.08V43.048H272.071V65.08H274.071ZM334.014 2.656V1.656H333.014V2.656H334.014ZM388.158 2.656H389.158V1.656H388.158V2.656ZM388.158 14.248V15.248H389.158V14.248H388.158ZM348.126 14.248V13.248H347.126V14.248H348.126ZM348.126 28.648H347.126V29.648H348.126V28.648ZM388.95 28.648H389.95V27.648H388.95V28.648ZM388.95 40.24V41.24H389.95V40.24H388.95ZM334.014 40.24H333.014V41.24H334.014V40.24ZM330.846 50.032V49.032H329.846V50.032H330.846ZM392.478 50.032H393.478V49.032H392.478V50.032ZM392.478 61.624V62.624H393.478V61.624H392.478ZM330.846 61.624H329.846V62.624H330.846V61.624ZM334.014 3.656H388.158V1.656H334.014V3.656ZM387.158 2.656V14.248H389.158V2.656H387.158ZM388.158 13.248H348.126V15.248H388.158V13.248ZM347.126 14.248V28.648H349.126V14.248H347.126ZM348.126 29.648H388.95V27.648H348.126V29.648ZM387.95 28.648V40.24H389.95V28.648H387.95ZM388.95 39.24H334.014V41.24H388.95V39.24ZM335.014 40.24V2.656H333.014V40.24H335.014ZM330.846 51.032H392.478V49.032H330.846V51.032ZM391.478 50.032V61.624H393.478V50.032H391.478ZM392.478 60.624H330.846V62.624H392.478V60.624ZM331.846 61.624V50.032H329.846V61.624H331.846Z" fill="#F5FF82"/>
<defs>
<filter id="filter0_i_80_17" x="0.643188" y="0.927979" width="391.835" height="67.6641" filterUnits="userSpaceOnUse" color-interpolation-filters="sRGB">
<feFlood flood-opacity="0" result="BackgroundImageFix"/>
<feBlend mode="normal" in="SourceGraphic" in2="BackgroundImageFix" result="shape"/>
<feColorMatrix in="SourceAlpha" type="matrix" values="0 0 0 0 0 0 0 0 0 0 0 0 0 0 0 0 0 0 127 0" result="hardAlpha"/>
<feOffset dy="4"/>
<feGaussianBlur stdDeviation="1"/>
<feComposite in2="hardAlpha" operator="arithmetic" k2="-1" k3="1"/>
<feColorMatrix type="matrix" values="0 0 0 0 0 0 0 0 0 0 0 0 0 0 0 0 0 0 0.38 0"/>
<feBlend mode="normal" in2="shape" result="effect1_innerShadow_80_17"/>
</filter>
<linearGradient id="paint0_linear_80_17" x1="196" y1="-3" x2="196" y2="69" gradientUnits="userSpaceOnUse">
<stop offset="0.0885417" stop-color="#30C8EA"/>
<stop offset="0.364583" stop-color="white"/>
<stop offset="0.723958" stop-color="#FFB3E0" stop-opacity="0.959592"/>
<stop offset="0.96875" stop-color="#FF1CA4" stop-opacity="0.88"/>
</linearGradient>
</defs>
</svg>
