<?xml version="1.0" standalone="no"?>
<!DOCTYPE svg PUBLIC "-//W3C//DTD SVG 20010904//EN"
 "http://www.w3.org/TR/2001/REC-SVG-20010904/DTD/svg10.dtd">
<svg version="1.0" xmlns="http://www.w3.org/2000/svg"
 width="500.000000pt" height="500.000000pt" viewBox="0 0 500.000000 500.000000"
 preserveAspectRatio="xMidYMid meet">
<metadata>
Created by potrace 1.14, written by Peter Selinger 2001-2017
</metadata>
<g transform="translate(0.000000,500.000000) scale(0.100000,-0.100000)"
fill="#000000" stroke="none">
<path d="M2509 4806 c-2 -2 -35 -7 -74 -10 -64 -6 -108 -12 -160 -23 -11 -2
-40 -6 -65 -9 -144 -17 -357 -73 -530 -139 -112 -42 -249 -84 -300 -90 -47 -6
-80 -25 -129 -70 -26 -24 -63 -51 -82 -59 -19 -8 -60 -35 -93 -60 -32 -25 -63
-46 -68 -46 -11 0 -138 -128 -171 -172 -13 -18 -38 -71 -56 -118 -17 -47 -56
-123 -86 -170 -136 -215 -184 -302 -243 -441 -46 -110 -85 -226 -107 -324 -9
-38 -19 -79 -21 -90 -8 -30 -32 -164 -39 -215 -14 -96 -14 -444 0 -540 13 -95
30 -198 39 -235 2 -11 9 -42 16 -70 6 -27 28 -101 49 -165 21 -63 41 -144 44
-180 7 -84 24 -159 43 -187 8 -13 31 -37 52 -55 68 -60 144 -142 185 -203 64
-96 121 -160 286 -325 86 -86 174 -178 197 -205 46 -56 118 -97 252 -144 45
-16 114 -50 153 -75 118 -75 200 -104 313 -111 54 -3 102 -7 106 -10 8 -5 213
-41 290 -50 82 -10 91 -12 140 -19 49 -8 336 29 500 64 249 53 517 167 740
315 63 42 120 81 125 88 6 7 28 25 50 42 132 97 285 260 468 500 17 22 69 78
115 124 52 51 88 96 93 115 4 17 15 85 24 151 9 65 25 142 36 170 26 67 73
264 95 400 24 152 24 494 0 655 -57 376 -168 662 -383 983 -62 93 -113 176
-113 185 0 24 -25 104 -44 139 -8 17 -36 45 -61 64 -107 79 -145 110 -145 119
0 22 -123 87 -279 146 -35 14 -128 56 -205 94 -78 38 -164 77 -191 88 -52 21
-242 78 -285 86 -131 25 -344 62 -420 72 -24 3 -47 7 -51 10 -3 2 -8 2 -10 0z"/>
</g>
</svg>
